<svg width="119" height="50" viewBox="0 0 119 50" fill="none" xmlns="http://www.w3.org/2000/svg">
<g clip-path="url(#clip0_1335_1254)">
<path d="M31.24 0H1.76C0.787979 0 0 0.795353 0 1.77647V19.1415C0 20.1226 0.787979 20.9179 1.76 20.9179H31.24C32.212 20.9179 33 20.1226 33 19.1415V1.77647C33 0.795353 32.212 0 31.24 0Z" fill="#F4F4F4"/>
<path fill-rule="evenodd" clip-rule="evenodd" d="M27.2168 18.7482C27.1634 18.7495 27.1195 18.7674 27.0849 18.8018C27.0503 18.8362 27.0325 18.8793 27.0312 18.9311C27.0325 18.9825 27.0503 19.0254 27.0849 19.06C27.1195 19.0946 27.1634 19.1126 27.2168 19.114C27.2689 19.1126 27.3124 19.0946 27.347 19.06C27.3817 19.0254 27.3997 18.9825 27.401 18.9311C27.3997 18.8793 27.3818 18.8362 27.3472 18.8018C27.3126 18.7674 27.2691 18.7495 27.2168 18.7482ZM27.2168 19.0737C27.1761 19.0727 27.1426 19.0588 27.1162 19.032C27.0898 19.0052 27.0761 18.9716 27.0752 18.9311C27.0761 18.8905 27.0898 18.8568 27.1162 18.8303C27.1426 18.8037 27.1761 18.7899 27.2168 18.789C27.2566 18.7899 27.2896 18.8037 27.3158 18.8303C27.3421 18.8568 27.3557 18.8905 27.3566 18.9311C27.3557 18.9716 27.3421 19.0052 27.3158 19.032C27.2896 19.0588 27.2566 19.0727 27.2168 19.0737ZM27.2275 18.8455H27.1498V19.0154H27.1857V18.9517H27.2022L27.2532 19.0154H27.2963L27.2412 18.9513C27.2584 18.9491 27.2716 18.9435 27.2809 18.9344C27.2901 18.9253 27.2948 18.9138 27.2949 18.8997C27.2948 18.8829 27.2889 18.8697 27.2773 18.8601C27.2657 18.8505 27.2491 18.8456 27.2275 18.8455ZM27.227 18.8773C27.2367 18.8773 27.2442 18.8792 27.2497 18.883C27.2552 18.8867 27.258 18.8923 27.2581 18.8997C27.258 18.9073 27.2552 18.913 27.2497 18.9169C27.2442 18.9207 27.2367 18.9226 27.227 18.9226H27.1857V18.8773H27.227Z" fill="black"/>
<path fill-rule="evenodd" clip-rule="evenodd" d="M7.04831 18.9972H6.66309V17.1815H7.04076V17.4028C7.04076 17.4028 7.37248 17.1324 7.5695 17.1358C7.95258 17.1423 8.18133 17.4714 8.18133 17.4714C8.18133 17.4714 8.36689 17.1358 8.78561 17.1358C9.4048 17.1358 9.49563 17.7079 9.49563 17.7079V18.9896H9.12551V17.8605C9.12551 17.8605 9.12684 17.5172 8.72518 17.5172C8.30982 17.5172 8.27197 17.8605 8.27197 17.8605V18.9896H7.88675V17.8529C7.88675 17.8529 7.84974 17.4943 7.50152 17.4943C7.04927 17.4943 7.04076 17.8605 7.04076 17.8605L7.04831 18.9972Z" fill="black"/>
<path fill-rule="evenodd" clip-rule="evenodd" d="M18.7627 17.1355C18.5657 17.1322 18.234 17.4025 18.234 17.4025V17.1818H17.856V18.997H18.2414L18.234 17.8604C18.234 17.8604 18.2426 17.495 18.6948 17.495C18.7788 17.495 18.844 17.5156 18.8957 17.5472V17.5457L19.0212 17.1922C18.9454 17.16 18.8593 17.1372 18.7627 17.1355Z" fill="black"/>
<path fill-rule="evenodd" clip-rule="evenodd" d="M24.1895 17.1355C23.9925 17.1322 23.6608 17.4025 23.6608 17.4025V17.1818H23.2827V18.997H23.6682L23.6608 17.8604C23.6608 17.8604 23.6693 17.495 24.1216 17.495C24.2056 17.495 24.2708 17.5156 24.3224 17.5472V17.5457L24.4479 17.1922C24.3722 17.16 24.286 17.1372 24.1895 17.1355V17.1355Z" fill="black"/>
<path fill-rule="evenodd" clip-rule="evenodd" d="M10.7412 17.1281C10.1647 17.1281 9.85958 17.6514 9.85804 18.0886C9.85645 18.5368 10.2054 19.0537 10.7574 19.0537C11.0795 19.0537 11.3441 18.8136 11.3441 18.8136L11.3434 18.9985H11.7226V17.181H11.3421V17.41C11.3421 17.41 11.0936 17.1281 10.7412 17.1281H10.7412ZM10.815 17.498C11.1248 17.498 11.3762 17.7701 11.3762 18.105C11.3762 18.44 11.1248 18.7106 10.815 18.7106C10.5053 18.7106 10.2553 18.44 10.2553 18.105C10.2553 17.7701 10.5053 17.498 10.815 17.498Z" fill="black"/>
<path fill-rule="evenodd" clip-rule="evenodd" d="M21.7997 17.1281C21.2231 17.1281 20.918 17.6514 20.9165 18.0886C20.9149 18.5368 21.2638 19.0537 21.8159 19.0537C22.138 19.0537 22.4026 18.8136 22.4026 18.8136L22.4019 18.9985H22.7811V17.181H22.4005V17.41C22.4005 17.41 22.1521 17.1281 21.7997 17.1281H21.7997ZM21.8735 17.498C22.1833 17.498 22.4347 17.7701 22.4347 18.105C22.4347 18.44 22.1833 18.7106 21.8735 18.7106C21.5638 18.7106 21.3138 18.44 21.3138 18.105C21.3138 17.7701 21.5638 17.498 21.8735 17.498Z" fill="black"/>
<path fill-rule="evenodd" clip-rule="evenodd" d="M25.4404 17.1281C24.8639 17.1281 24.5588 17.6514 24.5573 18.0887C24.5557 18.5369 24.9046 19.0538 25.4567 19.0538C25.7787 19.0538 26.0433 18.8136 26.0433 18.8136L26.0426 18.9986H26.4218V16.4636H26.0413V17.41C26.0413 17.41 25.7928 17.1281 25.4404 17.1281H25.4404ZM25.5143 17.498C25.824 17.498 26.0755 17.7701 26.0755 18.1051C26.0755 18.4401 25.824 18.7107 25.5143 18.7107C25.2045 18.7107 24.9545 18.4401 24.9545 18.1051C24.9545 17.7701 25.2045 17.498 25.5143 17.498Z" fill="black"/>
<path fill-rule="evenodd" clip-rule="evenodd" d="M12.8794 19.0583C12.4866 19.0583 12.124 18.8142 12.124 18.8142L12.2902 18.5548C12.2902 18.5548 12.6333 18.715 12.8794 18.715C13.0393 18.715 13.3067 18.6628 13.3099 18.5014C13.3133 18.3307 12.8605 18.2801 12.8605 18.2801C12.8605 18.2801 12.1845 18.2708 12.1845 17.708C12.1845 17.354 12.5221 17.1282 12.9549 17.1282C13.205 17.1282 13.6725 17.3494 13.6725 17.3494L13.4836 17.6469C13.4836 17.6469 13.1227 17.5013 12.9322 17.4944C12.7714 17.4885 12.5772 17.5663 12.5772 17.708C12.5772 18.0929 13.7027 17.678 13.7027 18.4556C13.7027 18.9658 13.2443 19.0583 12.8794 19.0583Z" fill="black"/>
<path fill-rule="evenodd" clip-rule="evenodd" d="M14.3279 16.656V17.184H13.9927V17.5659H14.3279V18.4787C14.3279 18.4787 14.2982 19.0963 14.9556 19.0963C15.1373 19.0963 15.4932 18.9605 15.4932 18.9605L15.341 18.5638C15.341 18.5638 15.1995 18.6857 15.0398 18.6816C14.736 18.6738 14.7444 18.4772 14.7444 18.4772V17.5659H15.3706V17.184H14.7444V16.656H14.3279Z" fill="black"/>
<path fill-rule="evenodd" clip-rule="evenodd" d="M16.6102 17.1505C15.992 17.1505 15.6831 17.6648 15.6857 18.1111C15.6883 18.5701 15.9669 19.0866 16.6471 19.0866C16.9382 19.0866 17.3471 18.8286 17.3471 18.8286L17.1714 18.5198C17.1714 18.5198 16.8924 18.7197 16.6471 18.7197C16.1561 18.7197 16.1243 18.2349 16.1243 18.2349H17.4387C17.4387 18.2349 17.5367 17.1505 16.6102 17.1505ZM16.5541 17.507C16.5686 17.5062 16.5843 17.507 16.5998 17.507C17.0624 17.507 17.0591 17.9485 17.0591 17.9485H16.1243C16.1243 17.9485 16.1022 17.533 16.5541 17.507Z" fill="black"/>
<path fill-rule="evenodd" clip-rule="evenodd" d="M20.5202 18.5151L20.6965 18.8711C20.6965 18.8711 20.4171 19.0545 20.1036 19.0545C19.4545 19.0545 19.0941 18.5612 19.0941 18.0943C19.0941 17.3606 19.6677 17.1449 20.0555 17.1449C20.4076 17.1449 20.7125 17.3499 20.7125 17.3499L20.5149 17.7059C20.5149 17.7059 20.395 17.5171 20.0448 17.5171C19.6952 17.5171 19.5107 17.8216 19.5107 18.1105C19.5107 18.4343 19.7255 18.7093 20.0502 18.7093C20.3049 18.7093 20.5202 18.5151 20.5202 18.5151Z" fill="black"/>
<path fill-rule="evenodd" clip-rule="evenodd" d="M27.4774 12.3754V12.1293H27.414L27.3411 12.2985L27.2682 12.1293H27.2048V12.3754H27.2495V12.1898L27.3179 12.3498H27.3643L27.4326 12.1893V12.3754H27.4774ZM27.076 12.3754V12.1713H27.1572V12.1297H26.9504V12.1713H27.0316V12.3754H27.076Z" fill="#F79F1A"/>
<path fill-rule="evenodd" clip-rule="evenodd" d="M27.4906 8.72955C27.4906 12.5234 24.4513 15.599 20.702 15.599C16.9527 15.599 13.9133 12.5234 13.9133 8.72955C13.9133 4.93566 16.9527 1.86011 20.702 1.86011C24.4513 1.86011 27.4906 4.93566 27.4906 8.72955Z" fill="#F79F1A"/>
<path fill-rule="evenodd" clip-rule="evenodd" d="M19.1158 8.72955C19.1158 12.5234 16.0764 15.599 12.3271 15.599C8.57784 15.599 5.53845 12.5234 5.53845 8.72955C5.53845 4.93566 8.57784 1.86011 12.3271 1.86011C16.0764 1.86011 19.1158 4.93566 19.1158 8.72955Z" fill="#EA001B"/>
<path fill-rule="evenodd" clip-rule="evenodd" d="M16.5144 3.3219C14.9305 4.57947 13.9137 6.53366 13.9137 8.72893C13.9137 10.9242 14.9305 12.8799 16.5144 14.1375C18.0984 12.8799 19.1152 10.9242 19.1152 8.72893C19.1152 6.53366 18.0984 4.57947 16.5144 3.3219Z" fill="#FF5F01"/>
</g>
<g clip-path="url(#clip1_1335_1254)">
<path d="M117.24 0H87.76C86.788 0 86 0.7849 86 1.75312V18.8899C86 19.8581 86.788 20.643 87.76 20.643H117.24C118.212 20.643 119 19.8581 119 18.8899V1.75312C119 0.7849 118.212 0 117.24 0Z" fill="#0E4595"/>
<path fill-rule="evenodd" clip-rule="evenodd" d="M98.241 14.6486L99.7089 6.06873H102.057L100.588 14.6486H98.241Z" fill="white"/>
<path fill-rule="evenodd" clip-rule="evenodd" d="M109.07 6.25379C108.605 6.07996 107.876 5.89343 106.966 5.89343C104.646 5.89343 103.012 7.05711 102.998 8.7249C102.985 9.95773 104.164 10.6455 105.055 11.0559C105.969 11.4764 106.276 11.7446 106.272 12.1202C106.266 12.6953 105.542 12.958 104.867 12.958C103.927 12.958 103.428 12.828 102.657 12.5076L102.354 12.3713L102.025 14.292C102.573 14.5314 103.587 14.739 104.64 14.7497C107.108 14.7497 108.71 13.5994 108.728 11.8184C108.737 10.8424 108.112 10.0996 106.757 9.48728C105.937 9.09038 105.434 8.82552 105.439 8.42362C105.439 8.06699 105.865 7.68565 106.784 7.68565C107.552 7.67377 108.108 7.84053 108.541 8.01436L108.751 8.11336L109.07 6.25379Z" fill="white"/>
<path fill-rule="evenodd" clip-rule="evenodd" d="M115.111 6.06873H113.297C112.735 6.06873 112.315 6.22151 112.068 6.78023L108.581 14.6431H111.046C111.046 14.6431 111.449 13.5859 111.541 13.3538C111.81 13.3538 114.205 13.3574 114.547 13.3574C114.618 13.6578 114.833 14.6431 114.833 14.6431H117.012L115.111 6.06873ZM112.233 11.6089C112.427 11.1146 113.168 9.21049 113.168 9.21049C113.154 9.23333 113.361 8.71374 113.48 8.39161L113.638 9.13134C113.638 9.13134 114.088 11.1794 114.182 11.6088H112.233V11.6089Z" fill="white"/>
<path fill-rule="evenodd" clip-rule="evenodd" d="M96.2479 6.06873L93.9493 11.9196L93.7044 10.7305C93.2765 9.35987 91.9433 7.87488 90.4529 7.13143L92.5546 14.6349L95.0386 14.6321L98.7348 6.06873H96.2479Z" fill="white"/>
<path fill-rule="evenodd" clip-rule="evenodd" d="M91.8047 6.06873H88.0189L87.9889 6.24724C90.9342 6.95743 92.8831 8.6737 93.6921 10.7359L92.8689 6.79307C92.7268 6.24978 92.3146 6.08766 91.8047 6.06873Z" fill="#F2AE14"/>
</g>
<path d="M74.24 0H44.76C43.788 0 43 0.7849 43 1.75312V18.8899C43 19.8581 43.788 20.643 44.76 20.643H74.24C75.212 20.643 76 19.8581 76 18.8899V1.75312C76 0.7849 75.212 0 74.24 0Z" fill="#2557D6"/>
<path fill-rule="evenodd" clip-rule="evenodd" d="M43.0001 9.69408H44.5852L44.9426 8.839H45.7427L46.0992 9.69408H49.2179V9.04034L49.4963 9.69687H51.1153L51.3937 9.03059V9.69408H59.1443L59.1407 8.29046H59.2907C59.3957 8.29406 59.4264 8.3037 59.4264 8.47567V9.69408H63.435V9.36733C63.7584 9.53918 64.2613 9.69408 64.923 9.69408H66.6095L66.9704 8.839H67.7705L68.1235 9.69408H71.3733V8.88184L71.8655 9.69408H74.4697V4.32483H71.8924V4.95894L71.5315 4.32483H68.8869V4.95894L68.5555 4.32483H64.9832C64.3852 4.32483 63.8596 4.40762 63.435 4.63835V4.32483H60.9699V4.63835C60.6997 4.40054 60.3315 4.32483 59.9221 4.32483H50.9159L50.3117 5.71162L49.6911 4.32483H46.8544V4.95894L46.5427 4.32483H44.1235L43 6.87766V9.69408H43.0001H43.0001ZM53.0056 8.91961H52.0545L52.051 5.90451L50.7058 8.91961H49.8913L48.5426 5.90184V8.91961H46.6557L46.2993 8.06092H44.3677L44.0076 8.91961H43L44.6613 5.06986H46.0396L47.6174 8.71478V5.06986H49.1315L50.3456 7.68145L51.4609 5.06986H53.0054V8.91961H53.0056H53.0056ZM45.9822 7.26197L45.3472 5.72725L44.7159 7.26197H45.9822ZM56.7905 8.91961H53.6914V5.06986H56.7905V5.87154H54.6191V6.56545H56.7384V7.35458H54.6191V8.12339H56.7905V8.91961ZM61.1577 6.10667C61.1577 6.72047 60.7447 7.03758 60.504 7.1328C60.707 7.20944 60.8804 7.34483 60.9629 7.457C61.0939 7.64848 61.1165 7.81952 61.1165 8.16334V8.91961H60.1808L60.1773 8.43412C60.1773 8.20247 60.1996 7.86933 60.0308 7.68412C59.8953 7.54873 59.6887 7.51935 59.3547 7.51935H58.3588V8.91961H57.4312V5.06986H59.5649C60.039 5.06986 60.3884 5.08229 60.6883 5.25426C60.9818 5.42623 61.1577 5.67727 61.1577 6.10667V6.10667ZM59.985 6.67833C59.8575 6.75508 59.7067 6.75763 59.5261 6.75763H58.3991V5.90255H59.5414C59.7031 5.90255 59.8718 5.90975 59.9814 5.97199C60.1017 6.02807 60.1762 6.14744 60.1762 6.31233C60.1762 6.48058 60.1053 6.61597 59.985 6.67833ZM62.6455 8.91961H61.6989V5.06986H62.6455V8.91961ZM73.6341 8.91961H72.3194L70.561 6.03015V8.91961H68.6717L68.3106 8.06092H66.3835L66.0332 8.91961H64.9477C64.4968 8.91961 63.9258 8.82068 63.6025 8.49381C63.2765 8.16694 63.1068 7.72418 63.1068 7.02411C63.1068 6.45317 63.2082 5.93122 63.607 5.51877C63.9069 5.21153 64.3765 5.06986 65.0158 5.06986H65.914V5.89476H65.0347C64.6961 5.89476 64.505 5.94469 64.3208 6.12281C64.1627 6.28491 64.0541 6.59135 64.0541 6.99485C64.0541 7.4073 64.1368 7.70468 64.3092 7.89894C64.452 8.05129 64.7116 8.0975 64.9558 8.0975H65.3724L66.6799 5.06998H68.0699L69.6406 8.71129V5.06998H71.0531L72.6838 7.75112V5.06998H73.6341V8.91961ZM67.9951 7.26197L67.3531 5.72725L66.7146 7.26197H67.9951Z" fill="white"/>
<path fill-rule="evenodd" clip-rule="evenodd" d="M75.9981 15.0666C75.7728 15.3935 75.3337 15.5592 74.7392 15.5592H72.9476V14.7335H74.7319C74.9089 14.7335 75.0328 14.7104 75.1074 14.6382C75.172 14.5786 75.2171 14.4921 75.2171 14.387C75.2171 14.2748 75.172 14.1858 75.1037 14.1324C75.0364 14.0736 74.9384 14.0469 74.7769 14.0469C73.9058 14.0175 72.8191 14.0736 72.8191 12.8551C72.8191 12.2965 73.1766 11.7086 74.1501 11.7086H75.998V10.9425H74.2811C73.763 10.9425 73.3866 11.0656 73.1201 11.2569V10.9425H70.5806C70.1745 10.9425 69.6978 11.0424 69.4723 11.2569V10.9425H64.9374V11.2569C64.5765 10.9987 63.9676 10.9425 63.6865 10.9425H60.6952V11.2569C60.4097 10.9827 59.7748 10.9425 59.3877 10.9425H56.04L55.2739 11.7648L54.5565 10.9425H49.5557V16.3155H54.4623L55.2517 15.4801L55.9953 16.3155L59.0198 16.3181V15.0542H59.3171C59.7184 15.0604 60.1917 15.0443 60.6093 14.8653V16.3154H63.104V14.915H63.2243C63.3779 14.915 63.393 14.9213 63.393 15.0735V16.3152H70.9713C71.4525 16.3152 71.9554 16.1931 72.2339 15.9714V16.3152H74.6377C75.1379 16.3152 75.6264 16.2457 75.9981 16.0676V15.0666V15.0666ZM60.972 12.9999C60.972 14.0696 60.1674 14.2905 59.3565 14.2905H58.1989V15.582H56.3958L55.2535 14.3073L54.0663 15.582H50.3916V11.7314H54.1228L55.2642 12.9936L56.4442 11.7314H59.4086C60.1448 11.7314 60.972 11.9335 60.972 12.9999ZM53.5965 14.7721H51.3156V14.0059H53.3523V13.2203H51.3156V12.5202H53.6414L54.6561 13.6424L53.5965 14.7721ZM57.2716 15.213L55.8473 13.6445L57.2716 12.1258V15.213ZM59.378 13.5008H58.1792V12.5202H59.3888C59.7237 12.5202 59.9562 12.6556 59.9562 12.9924C59.9562 13.3254 59.7345 13.5008 59.378 13.5008ZM65.6587 11.7314H68.755V12.5277H66.5826V13.2278H68.702V14.0134H66.5826V14.7796L68.755 14.783V15.582H65.6587V11.7314V11.7314ZM64.4684 13.7926C64.6749 13.8682 64.8437 14.0037 64.9228 14.1158C65.0538 14.3038 65.0728 14.4793 65.0765 14.8187V15.582H64.1452V15.1003C64.1452 14.8686 64.1677 14.5256 63.9952 14.3466C63.8597 14.2086 63.653 14.1756 63.3146 14.1756H62.3232V15.582H61.391V11.7314H63.5328C64.0025 11.7314 64.3445 11.7519 64.649 11.9131C64.9418 12.0885 65.126 12.3289 65.126 12.7682C65.1258 13.3828 64.7126 13.6964 64.4684 13.7926ZM63.944 13.3058C63.8199 13.3788 63.6664 13.3851 63.4859 13.3851H62.3589V12.5202H63.5013C63.6664 12.5202 63.8317 12.5237 63.944 12.5898C64.0642 12.6521 64.1361 12.7714 64.1361 12.9362C64.1361 13.1009 64.0642 13.2336 63.944 13.3058ZM72.3188 13.551C72.4994 13.7365 72.5962 13.9706 72.5962 14.3669C72.5962 15.1953 72.0745 15.5819 71.1389 15.5819H69.332V14.7562H71.1316C71.3076 14.7562 71.4324 14.7331 71.5106 14.6609C71.5744 14.6013 71.6201 14.5148 71.6201 14.4097C71.6201 14.2976 71.5706 14.2085 71.5069 14.1551C71.436 14.0963 71.3381 14.0696 71.1766 14.0696C70.309 14.0402 69.2225 14.0963 69.2225 12.8778C69.2225 12.3193 69.5763 11.7314 70.5489 11.7314H72.4087V12.5509H70.7069C70.5382 12.5509 70.4285 12.5572 70.3352 12.6205C70.2336 12.6828 70.1959 12.7754 70.1959 12.8975C70.1959 13.0428 70.2822 13.1416 70.3989 13.1843C70.4968 13.2181 70.6019 13.228 70.76 13.228L71.2594 13.2413C71.763 13.2535 72.1087 13.3399 72.3188 13.551ZM76 12.5202H74.3093C74.1405 12.5202 74.0283 12.5265 73.9338 12.5898C73.836 12.6521 73.7983 12.7447 73.7983 12.8668C73.7983 13.0121 73.8809 13.1109 74.0011 13.1536C74.099 13.1874 74.2041 13.1973 74.3587 13.1973L74.8615 13.2107C75.3688 13.2231 75.7075 13.3096 75.914 13.5206C75.9516 13.55 75.9742 13.5829 76 13.6159V12.5202Z" fill="white"/>
<path d="M31.24 28.8867H1.76C0.787979 28.8867 0 29.6716 0 30.6398V47.7766C0 48.7448 0.787979 49.5297 1.76 49.5297H31.24C32.212 49.5297 33 48.7448 33 47.7766V30.6398C33 29.6716 32.212 28.8867 31.24 28.8867Z" fill="#0079BE"/>
<path fill-rule="evenodd" clip-rule="evenodd" d="M25.7371 39.3154C25.7371 34.9582 22.086 31.9464 18.0857 31.9479H14.6431C10.595 31.9464 7.26294 34.9591 7.26294 39.3154C7.26294 43.3007 10.595 46.5751 14.6431 46.5559H18.0857C22.086 46.575 25.7371 43.2998 25.7371 39.3154Z" fill="white"/>
<path fill-rule="evenodd" clip-rule="evenodd" d="M14.6643 32.5652C10.9653 32.5663 7.96779 35.559 7.96692 39.2525C7.96779 42.9453 10.9652 45.9376 14.6643 45.9388C18.3643 45.9376 21.3624 42.9453 21.3629 39.2525C21.3624 35.559 18.3643 32.5663 14.6643 32.5652Z" fill="#0079BE"/>
<path fill-rule="evenodd" clip-rule="evenodd" d="M10.4309 39.2343C10.4344 37.4295 11.5637 35.8904 13.1563 35.2788V43.1889C11.5637 42.5776 10.4344 41.0394 10.4309 39.2343ZM16.1949 43.1909V35.2788C17.788 35.8889 18.9191 37.4289 18.922 39.2346C18.9191 41.0408 17.788 42.5796 16.1949 43.1909Z" fill="white"/>
<path d="M74.24 28.8867H44.76C43.788 28.8867 43 29.6716 43 30.6398V47.7766C43 48.7448 43.788 49.5297 44.76 49.5297H74.24C75.212 49.5297 76 48.7448 76 47.7766V30.6398C76 29.6716 75.212 28.8867 74.24 28.8867Z" fill="#0E4C96"/>
<path fill-rule="evenodd" clip-rule="evenodd" d="M70.1587 44.0848C70.1587 45.9087 68.6747 47.3877 66.8429 47.3877H48.8413V34.3322C48.8413 32.5078 50.3256 31.0288 52.1574 31.0288L70.1587 31.0288V44.0848H70.1587Z" fill="white"/>
<path fill-rule="evenodd" clip-rule="evenodd" d="M64.2899 39.495C64.804 39.5061 65.3211 39.4724 65.8333 39.5126C66.3519 39.609 66.4769 40.391 66.0162 40.6472C65.7019 40.8159 65.3283 40.7099 64.9875 40.7398H64.2899V39.495ZM66.1305 38.0862C66.2448 38.4879 65.8561 38.8484 65.4676 38.7932H64.2899C64.298 38.4144 64.2737 38.0033 64.3019 37.6445C64.7737 37.6577 65.25 37.6175 65.7191 37.6655C65.9207 37.7159 66.0893 37.881 66.1305 38.0862ZM68.9654 32.1298C68.9873 32.8969 68.9685 33.7044 68.9748 34.487C68.9733 37.6688 68.978 40.8506 68.9724 44.0323C68.9518 45.2248 67.8907 46.2607 66.702 46.2845C65.5119 46.2894 64.3218 46.2852 63.1317 46.2866V41.4764C64.4284 41.4697 65.7259 41.4899 67.0221 41.4663C67.6234 41.4286 68.2819 41.0334 68.3099 40.3743C68.3808 39.7124 67.7542 39.2545 67.1592 39.1821C66.9305 39.1762 66.9373 39.1157 67.1592 39.0894C67.7265 38.9672 68.1721 38.3823 68.0052 37.7965C67.8628 37.1804 67.1791 36.9419 66.6105 36.9431C65.451 36.9352 64.2913 36.9419 63.1317 36.9397C63.1393 36.0417 63.1161 35.1427 63.1443 34.2454C63.2362 33.0745 64.3238 32.1089 65.496 32.1299C66.6524 32.1298 67.809 32.1299 68.9654 32.1298Z" fill="url(#paint0_linear_1335_1254)"/>
<path fill-rule="evenodd" clip-rule="evenodd" d="M50.0285 34.3669C50.0581 33.1764 51.1236 32.1487 52.311 32.1313C53.4966 32.1277 54.6822 32.1308 55.8678 32.1298C55.8646 36.1131 55.8743 40.0967 55.8629 44.0798C55.8172 45.2559 54.7634 46.264 53.589 46.2847C52.4012 46.289 51.2133 46.2853 50.0254 46.2866V41.3141C51.1792 41.5856 52.3891 41.7012 53.5662 41.521C54.2699 41.4082 55.0397 41.0642 55.2779 40.337C55.4533 39.7151 55.3545 39.0605 55.3806 38.4221V36.9397H53.3435C53.3344 37.9201 53.3623 38.9023 53.3288 39.8816C53.2738 40.4836 52.6755 40.866 52.1056 40.8456C51.3986 40.853 49.998 40.3355 49.998 40.3355C49.9945 38.4983 50.0186 36.1978 50.0285 34.3669Z" fill="url(#paint1_linear_1335_1254)"/>
<path fill-rule="evenodd" clip-rule="evenodd" d="M56.6277 37.5379C56.5206 37.5606 56.6061 37.1741 56.5787 37.0275C56.586 36.1005 56.5634 35.1725 56.5912 34.2462C56.6828 33.0704 57.7788 32.1023 58.9557 32.1298H62.4214C62.4181 36.1131 62.4279 40.0967 62.4165 44.0798C62.3708 45.2559 61.3168 46.2639 60.1425 46.2848C58.9546 46.2891 57.7666 46.2854 56.5787 46.2866V40.8389C57.39 41.502 58.4927 41.6052 59.5034 41.607C60.2654 41.6068 61.0229 41.4898 61.7628 41.3147V40.3166C60.9289 40.7306 59.9486 40.9936 59.0241 40.7557C58.3793 40.5957 57.9112 39.975 57.9217 39.3121C57.8469 38.6228 58.2527 37.895 58.9329 37.69C59.7772 37.4267 60.6976 37.6281 61.4891 37.9704C61.6587 38.0589 61.8307 38.1686 61.7628 37.8862V37.1017C60.4391 36.788 59.0304 36.6726 57.7004 37.0139C57.3155 37.122 56.9404 37.2861 56.6277 37.5379Z" fill="url(#paint2_linear_1335_1254)"/>
<path fill-rule="evenodd" clip-rule="evenodd" d="M88.3266 28.8867C87.0419 28.8867 86 29.9247 86 31.2047V47.682C86 48.9623 87.0416 50 88.3266 50H116.673C117.958 50 119 48.9621 119 47.682V40.2043V31.2047C119 29.9244 117.958 28.8867 116.673 28.8867H88.3266Z" fill="#4D4D4D"/>
<path fill-rule="evenodd" clip-rule="evenodd" d="M103.563 35.6805C104.872 35.6805 105.933 36.6743 105.933 37.9018V37.9032C105.933 39.1308 104.872 40.1259 103.563 40.1259C102.254 40.1259 101.193 39.1308 101.193 37.9032V37.9018C101.193 36.6743 102.254 35.6805 103.563 35.6805ZM99.8411 35.7092C100.215 35.7092 100.529 35.7844 100.91 35.9658V36.9246C100.549 36.5933 100.235 36.4546 99.8204 36.4546C99.0054 36.4546 98.3645 37.0873 98.3645 37.8896C98.3645 38.7355 98.9856 39.3306 99.8608 39.3306C100.255 39.3306 100.563 39.1991 100.91 38.8731V39.8324C100.515 40.0069 100.195 40.0758 99.8204 40.0758C98.4971 40.0758 97.4689 39.1235 97.4689 37.8955C97.4689 36.6807 98.5245 35.7092 99.8411 35.7092ZM95.7325 35.7356C96.2209 35.7356 96.6679 35.8924 97.0416 36.1989L96.5869 36.7572C96.3605 36.5193 96.1464 36.4189 95.8861 36.4189C95.5115 36.4189 95.2387 36.6189 95.2387 36.882C95.2387 37.1077 95.3919 37.2271 95.9133 37.408C96.9019 37.747 97.1948 38.0476 97.1948 38.7113C97.1948 39.5202 96.5612 40.0832 95.6582 40.0832C94.9969 40.0832 94.5162 39.839 94.1158 39.2879L94.6771 38.7809C94.8772 39.1437 95.2111 39.3381 95.6256 39.3381C96.0133 39.3381 96.3003 39.0873 96.3003 38.7488C96.3003 38.5733 96.2134 38.4229 96.0398 38.3165C95.9524 38.2661 95.7792 38.191 95.439 38.0785C94.6229 37.803 94.3428 37.5085 94.3428 36.9329C94.3428 36.2491 94.9442 35.7356 95.7325 35.7356ZM105.663 35.8085H106.612L107.8 38.6148L109.004 35.8085H109.946L108.021 40.0937H107.554L105.663 35.8085ZM88.8522 35.8149H90.1278C91.5371 35.8149 92.5196 36.6738 92.5196 37.9068C92.5196 38.5217 92.219 39.1161 91.7108 39.5106C91.2831 39.8436 90.7958 39.993 90.1211 39.993H88.8522V35.8149ZM92.9194 35.8149H93.7885V39.993H92.9194V35.8149ZM110.339 35.8149H112.803V36.5228H111.207V37.4502H112.745V38.1578H111.207V39.2856H112.803V39.993H110.339V35.8149ZM113.379 35.8149H114.668C115.67 35.8149 116.244 36.2662 116.244 37.0484C116.244 37.6881 115.884 38.1079 115.229 38.2329L116.632 39.993H115.563L114.36 38.3145H114.247V39.993H113.379V35.8149ZM114.247 36.4729V37.7383H114.501C115.056 37.7383 115.35 37.5123 115.35 37.0923C115.35 36.6857 115.056 36.4729 114.515 36.4729H114.247ZM89.7206 36.5228V39.2856H89.9537C90.5153 39.2856 90.8699 39.1847 91.143 38.9536C91.4435 38.7026 91.6243 38.3018 91.6243 37.9008C91.6243 37.5005 91.4435 37.1117 91.143 36.8607C90.856 36.6171 90.5153 36.5228 89.9537 36.5228H89.7206Z" fill="white"/>
<path fill-rule="evenodd" clip-rule="evenodd" d="M118.999 41.0389C117.897 41.8114 109.646 47.3325 95.3596 49.9994H116.673C117.957 49.9994 118.999 48.9614 118.999 47.6814V41.0389Z" fill="#F47216"/>
<defs>
<linearGradient id="paint0_linear_1335_1254" x1="63.1317" y1="39.2082" x2="68.9749" y2="39.2082" gradientUnits="userSpaceOnUse">
<stop stop-color="#007B40"/>
<stop offset="1" stop-color="#55B330"/>
</linearGradient>
<linearGradient id="paint1_linear_1335_1254" x1="50.0254" y1="39.2082" x2="55.8678" y2="39.2082" gradientUnits="userSpaceOnUse">
<stop stop-color="#1D2970"/>
<stop offset="1" stop-color="#006DBA"/>
</linearGradient>
<linearGradient id="paint2_linear_1335_1254" x1="56.5787" y1="39.2082" x2="62.4214" y2="39.2082" gradientUnits="userSpaceOnUse">
<stop stop-color="#6E2B2F"/>
<stop offset="1" stop-color="#E30138"/>
</linearGradient>
<clipPath id="clip0_1335_1254">
<rect width="33" height="20.9179" fill="white"/>
</clipPath>
<clipPath id="clip1_1335_1254">
<rect width="33" height="20.643" fill="white" transform="translate(86)"/>
</clipPath>
</defs>
</svg>
