<svg width="38" height="36" viewBox="0 0 38 36" fill="none" xmlns="http://www.w3.org/2000/svg">
<g clip-path="url(#clip0_1226_339)">
<path d="M27.4227 19.3539L14.3843 26.1422L15.3843 28.0109L28.7689 21.0319C29.615 20.5742 29.9612 19.5064 29.4997 18.6674L24.0381 8.48489L22.1535 9.47645L27.4227 19.3539Z" fill="url(#paint0_linear_1226_339)"/>
<path d="M10.9224 27.9728L2.26851 11.6121L18.7301 3.03133L21.1531 7.56961L23.0377 6.57805L20.4608 1.73468C19.9993 0.895674 18.9224 0.552443 18.0762 1.01008L0.960821 9.93409C0.114667 10.3917 -0.231487 11.4596 0.230052 12.2986L9.23005 29.2694C9.69159 30.1084 10.7685 30.4517 11.6147 29.994L13.4993 29.0025L12.4993 27.1338L10.9224 27.9728Z" fill="url(#paint1_linear_1226_339)"/>
<path d="M37.8072 23.7396L28.7687 6.73059C28.3072 5.89158 27.2303 5.54835 26.3841 6.00599L24.4995 6.99755L25.4995 8.86625L27.038 8.06538L35.6918 24.3879L19.2687 32.9687L16.8841 28.4304L14.9995 29.422L17.5764 34.3035C18.038 35.1425 19.1149 35.4857 19.9611 35.0281L37.1149 26.1041C37.9226 25.6464 38.2687 24.5786 37.8072 23.7396Z" fill="#0FAFE9" fill-opacity="0.1"/>
<path d="M37.3657 23.9742L37.3656 23.9742L37.3691 23.9806C37.6895 24.5631 37.4544 25.3318 36.8755 25.665L19.7303 34.5845L19.7303 34.5845L19.7232 34.5883C19.1306 34.9088 18.3526 34.6726 18.0164 34.0659L15.6754 29.6313L16.6742 29.1058L18.8261 33.2013L19.0582 33.6429L19.5003 33.4118L35.9234 24.8311L36.3692 24.5981L36.1336 24.1537L27.4797 7.83117L27.2473 7.39273L26.8071 7.62188L25.7071 8.19449L25.1779 7.20559L26.6169 6.44849L26.617 6.44852L26.622 6.44579C27.2147 6.12522 27.993 6.36163 28.329 6.96865L37.3657 23.9742Z" stroke="#0FAFE9" stroke-opacity="0.1"/>
<path d="M21.3461 10.7731L20.5384 9.24765L9.69228 14.8919C8.99997 15.2733 8.73074 16.1123 9.07689 16.7987L13.5 25.1125L15.0384 24.3117L10.7692 16.303L21.3461 10.7731Z" fill="#0FAFE9" fill-opacity="0.1"/>
<path d="M14.384 26.1422L12.4609 27.1338L13.4609 29.0406L15.384 28.049L14.384 26.1422Z" fill="url(#paint2_linear_1226_339)"/>
<path d="M22.1533 9.47646L24.0379 8.4849L23.0379 6.57806L21.1533 7.56962L22.1533 9.47646Z" fill="url(#paint3_linear_1226_339)"/>
</g>
<defs>
<linearGradient id="paint0_linear_1226_339" x1="6.90782" y1="24.9328" x2="27.1043" y2="14.2285" gradientUnits="userSpaceOnUse">
<stop stop-color="#0FAFE9"/>
<stop offset="0.267" stop-color="#14B0E9"/>
<stop offset="0.5862" stop-color="#23B2E8"/>
<stop offset="0.9307" stop-color="#3BB6E6"/>
<stop offset="0.9844" stop-color="#3FB7E6"/>
</linearGradient>
<linearGradient id="paint1_linear_1226_339" x1="4.70675" y1="20.7804" x2="24.9031" y2="10.0762" gradientUnits="userSpaceOnUse">
<stop stop-color="#0FAFE9"/>
<stop offset="0.267" stop-color="#14B0E9"/>
<stop offset="0.5862" stop-color="#23B2E8"/>
<stop offset="0.9307" stop-color="#3BB6E6"/>
<stop offset="0.9844" stop-color="#3FB7E6"/>
</linearGradient>
<linearGradient id="paint2_linear_1226_339" x1="9.53371" y1="29.8876" x2="29.73" y2="19.1835" gradientUnits="userSpaceOnUse">
<stop stop-color="#0FAFE9"/>
<stop offset="0.267" stop-color="#14B0E9"/>
<stop offset="0.5862" stop-color="#23B2E8"/>
<stop offset="0.9307" stop-color="#3BB6E6"/>
<stop offset="0.9844" stop-color="#3FB7E6"/>
</linearGradient>
<linearGradient id="paint3_linear_1226_339" x1="3.2823" y1="18.0925" x2="23.4786" y2="7.38831" gradientUnits="userSpaceOnUse">
<stop stop-color="#3C4394"/>
<stop offset="0.1604" stop-color="#3C4898"/>
<stop offset="0.3521" stop-color="#3D57A2"/>
<stop offset="0.5599" stop-color="#3D6FB3"/>
<stop offset="0.7774" stop-color="#3E90CB"/>
<stop offset="0.9844" stop-color="#3FB7E6"/>
</linearGradient>
<clipPath id="clip0_1226_339">
<rect width="38" height="34.4375" fill="white" transform="translate(0 0.78125)"/>
</clipPath>
</defs>
</svg>
