<svg width="130" height="18" viewBox="0 0 130 18" fill="none" xmlns="http://www.w3.org/2000/svg">
<rect width="18" height="18" fill="white"/>
<path d="M13.4992 0.0037452L11.165 0C8.54265 0 6.84796 1.73871 6.84796 4.42982V6.47227H4.50106C4.29826 6.47227 4.13403 6.63668 4.13403 6.83949V9.79876C4.13403 10.0016 4.29845 10.1658 4.50106 10.1658H6.84796V17.633C6.84796 17.8358 7.01219 18 7.21499 18H10.277C10.4798 18 10.6441 17.8356 10.6441 17.633V10.1658H13.3881C13.5909 10.1658 13.7552 10.0016 13.7552 9.79876L13.7563 6.83949C13.7563 6.74211 13.7175 6.64886 13.6488 6.57994C13.5801 6.51103 13.4865 6.47227 13.3891 6.47227H10.6441V4.74086C10.6441 3.90868 10.8424 3.48622 11.9264 3.48622L13.4988 3.48566C13.7014 3.48566 13.8656 3.32124 13.8656 3.11863V0.370775C13.8656 0.168347 13.7016 0.00411972 13.4992 0.0037452Z" fill="#3B5998"/>
<g clip-path="url(#clip0_1287_104)">
<path d="M35.0008 18C39.9634 18 44.0007 13.9624 44.0007 8.99957C44.0007 4.03719 39.9634 0 35.0008 0C30.0383 0 26.001 4.03719 26.001 8.99957C26.001 13.9624 30.0383 18 35.0008 18ZM35.0008 15.9037C33.5752 15.9037 32.2214 15.4769 31.0632 14.6655C31.5355 13.882 32.9712 11.9184 36.0465 10.7454C36.8217 12.847 37.2165 14.6404 37.3767 15.4816C36.6181 15.7619 35.8206 15.9037 35.0008 15.9037ZM39.3848 14.3253C39.2108 13.4752 38.8597 11.9794 38.2503 10.217C38.5585 10.1864 38.8741 10.1709 39.1941 10.1709C40.311 10.1709 41.243 10.3577 41.7351 10.4805C41.4064 11.9823 40.5731 13.3418 39.3848 14.3253ZM40.65 5.06723C41.3415 6.05728 41.7632 7.21966 41.8678 8.42272C41.2336 8.31861 40.1472 8.17776 38.9105 8.17776C38.4205 8.17776 37.946 8.20027 37.4956 8.24473C37.4838 8.2165 37.4718 8.18816 37.4598 8.1597C37.3658 7.93993 37.2649 7.71445 37.1586 7.48588C38.996 6.66167 40.1094 5.6522 40.65 5.06723ZM35.0008 2.11814C36.5482 2.11814 38.044 2.63899 39.256 3.59274C38.8381 4.05994 37.8859 4.94941 36.2098 5.64214C35.3743 4.14782 34.5168 2.88093 34.0265 2.18705C34.348 2.14122 34.6739 2.11814 35.0008 2.11814ZM31.7533 2.93292C32.1577 3.50234 33.0496 4.79495 33.9499 6.34281C31.5281 6.92675 29.4 7.05349 28.3842 7.07817C28.902 5.31414 30.1239 3.80743 31.7533 2.93292ZM34.9845 8.25615C35.063 8.41472 35.1382 8.57101 35.2102 8.72438C32.1511 9.77573 30.252 12.1204 29.518 13.1831C28.6464 12.0403 28.1537 10.6567 28.1109 9.21665C29.176 9.20551 32.0157 9.09037 34.9845 8.25615Z" fill="#EA4C89"/>
</g>
<path d="M74 10.9452V17.6H70.142V11.3909C70.142 9.83118 69.584 8.7667 68.1875 8.7667C67.1215 8.7667 66.4871 9.48408 66.208 10.178C66.1063 10.4261 66.0801 10.7714 66.0801 11.1187V17.6H62.2208C62.2208 17.6 62.2728 7.08391 62.2208 5.99437H66.0797V7.63942C66.0719 7.65172 66.0617 7.66499 66.0543 7.67691H66.0797V7.63942C66.5924 6.84977 67.508 5.72172 69.5574 5.72172C72.0965 5.72168 74 7.38045 74 10.9452ZM58.1838 0.399902C56.8636 0.399902 56 1.26589 56 2.40468C56 3.51866 56.8386 4.41093 58.1326 4.41093H58.1584C59.5042 4.41093 60.3412 3.51883 60.3412 2.40468C60.3158 1.26589 59.5042 0.399902 58.1838 0.399902ZM56.2292 17.6H60.087V5.99437H56.2292V17.6Z" fill="#007BB5"/>
<g clip-path="url(#clip1_1287_104)">
<path d="M130 3.41887C129.331 3.7125 128.617 3.90712 127.874 4.00162C128.639 3.54487 129.223 2.82712 129.497 1.962C128.784 2.38725 127.996 2.68763 127.157 2.85525C126.48 2.13413 125.515 1.6875 124.462 1.6875C122.419 1.6875 120.774 3.34575 120.774 5.37863C120.774 5.67113 120.799 5.95237 120.859 6.22012C117.792 6.0705 115.077 4.60013 113.253 2.36025C112.935 2.91263 112.748 3.54488 112.748 4.2255C112.748 5.5035 113.406 6.63637 114.387 7.29225C113.794 7.281 113.213 7.10888 112.72 6.83775C112.72 6.849 112.72 6.86363 112.72 6.87825C112.72 8.6715 113.999 10.161 115.676 10.5041C115.376 10.5863 115.049 10.6256 114.709 10.6256C114.473 10.6256 114.234 10.6121 114.01 10.5626C114.488 12.024 115.845 13.0984 117.459 13.1332C116.203 14.1154 114.609 14.7071 112.883 14.7071C112.581 14.7071 112.29 14.6936 112 14.6565C113.635 15.7106 115.572 16.3125 117.661 16.3125C124.451 16.3125 128.164 10.6875 128.164 5.81175C128.164 5.64862 128.158 5.49113 128.15 5.33475C128.883 4.815 129.498 4.16587 130 3.41887Z" fill="#489DFF"/>
</g>
<path d="M96.375 0H89.625C86.5189 0 84 2.51888 84 5.625V12.375C84 15.4811 86.5189 18 89.625 18H96.375C99.4811 18 102 15.4811 102 12.375V5.625C102 2.51888 99.4811 0 96.375 0ZM100.312 12.375C100.312 14.5463 98.5463 16.3125 96.375 16.3125H89.625C87.4538 16.3125 85.6875 14.5463 85.6875 12.375V5.625C85.6875 3.45375 87.4538 1.6875 89.625 1.6875H96.375C98.5463 1.6875 100.312 3.45375 100.312 5.625V12.375Z" fill="#C32AA3"/>
<path d="M93 4.5C90.5149 4.5 88.5 6.51487 88.5 9C88.5 11.4851 90.5149 13.5 93 13.5C95.4851 13.5 97.5 11.4851 97.5 9C97.5 6.51487 95.4851 4.5 93 4.5ZM93 11.8125C91.4497 11.8125 90.1875 10.5503 90.1875 9C90.1875 7.44863 91.4497 6.1875 93 6.1875C94.5503 6.1875 95.8125 7.44863 95.8125 9C95.8125 10.5503 94.5503 11.8125 93 11.8125Z" fill="#C32AA3"/>
<path d="M97.8377 4.76205C98.1688 4.76205 98.4373 4.49359 98.4373 4.16243C98.4373 3.83127 98.1688 3.56281 97.8377 3.56281C97.5065 3.56281 97.238 3.83127 97.238 4.16243C97.238 4.49359 97.5065 4.76205 97.8377 4.76205Z" fill="#C32AA3"/>
<defs>
<clipPath id="clip0_1287_104">
<rect width="18" height="18" fill="white" transform="translate(26)"/>
</clipPath>
<clipPath id="clip1_1287_104">
<rect width="18" height="18" fill="white" transform="translate(112)"/>
</clipPath>
</defs>
</svg>
